<svg id="visual" viewBox="0 0 900 600" width="900" height="600" xmlns="http://www.w3.org/2000/svg" xmlns:xlink="http://www.w3.org/1999/xlink" version="1.1"><path d="M0 7L16.7 7C33.3 7 66.7 7 100 12C133.3 17 166.7 27 200 34C233.3 41 266.7 45 300 41C333.3 37 366.7 25 400 24C433.3 23 466.7 33 500 34C533.3 35 566.7 27 600 28C633.3 29 666.7 39 700 41C733.3 43 766.7 37 800 30C833.3 23 866.7 15 883.3 11L900 7L900 0L883.3 0C866.7 0 833.3 0 800 0C766.7 0 733.3 0 700 0C666.7 0 633.3 0 600 0C566.7 0 533.3 0 500 0C466.7 0 433.3 0 400 0C366.7 0 333.3 0 300 0C266.7 0 233.3 0 200 0C166.7 0 133.3 0 100 0C66.7 0 33.3 0 16.7 0L0 0Z" fill="#0e8388"></path><path d="M0 43L16.7 43C33.3 43 66.7 43 100 46C133.3 49 166.7 55 200 61C233.3 67 266.7 73 300 74C333.3 75 366.7 71 400 73C433.3 75 466.7 83 500 78C533.3 73 566.7 55 600 49C633.3 43 666.7 49 700 54C733.3 59 766.7 63 800 61C833.3 59 866.7 51 883.3 47L900 43L900 5L883.3 9C866.7 13 833.3 21 800 28C766.7 35 733.3 41 700 39C666.7 37 633.3 27 600 26C566.7 25 533.3 33 500 32C466.7 31 433.3 21 400 22C366.7 23 333.3 35 300 39C266.7 43 233.3 39 200 32C166.7 25 133.3 15 100 10C66.7 5 33.3 5 16.7 5L0 5Z" fill="#237073"></path><path d="M0 55L16.7 58C33.3 61 66.7 67 100 73C133.3 79 166.7 85 200 91C233.3 97 266.7 103 300 105C333.3 107 366.7 105 400 107C433.3 109 466.7 115 500 104C533.3 93 566.7 65 600 60C633.3 55 666.7 73 700 82C733.3 91 766.7 91 800 89C833.3 87 866.7 83 883.3 81L900 79L900 41L883.3 45C866.7 49 833.3 57 800 59C766.7 61 733.3 57 700 52C666.7 47 633.3 41 600 47C566.7 53 533.3 71 500 76C466.7 81 433.3 73 400 71C366.7 69 333.3 73 300 72C266.7 71 233.3 65 200 59C166.7 53 133.3 47 100 44C66.7 41 33.3 41 16.7 41L0 41Z" fill="#2b5e5f"></path><path d="M0 67L16.7 69C33.3 71 66.7 75 100 80C133.3 85 166.7 91 200 96C233.3 101 266.7 105 300 112C333.3 119 366.7 129 400 135C433.3 141 466.7 143 500 130C533.3 117 566.7 89 600 86C633.3 83 666.7 105 700 112C733.3 119 766.7 111 800 104C833.3 97 866.7 91 883.3 88L900 85L900 77L883.3 79C866.7 81 833.3 85 800 87C766.7 89 733.3 89 700 80C666.7 71 633.3 53 600 58C566.7 63 533.3 91 500 102C466.7 113 433.3 107 400 105C366.7 103 333.3 105 300 103C266.7 101 233.3 95 200 89C166.7 83 133.3 77 100 71C66.7 65 33.3 59 16.7 56L0 53Z" fill="#2e4b4c"></path><path d="M0 121L16.7 116C33.3 111 66.7 101 100 99C133.3 97 166.7 103 200 107C233.3 111 266.7 113 300 119C333.3 125 366.7 135 400 143C433.3 151 466.7 157 500 152C533.3 147 566.7 131 600 133C633.3 135 666.7 155 700 156C733.3 157 766.7 139 800 127C833.3 115 866.7 109 883.3 106L900 103L900 83L883.3 86C866.7 89 833.3 95 800 102C766.7 109 733.3 117 700 110C666.7 103 633.3 81 600 84C566.7 87 533.3 115 500 128C466.7 141 433.3 139 400 133C366.7 127 333.3 117 300 110C266.7 103 233.3 99 200 94C166.7 89 133.3 83 100 78C66.7 73 33.3 69 16.7 67L0 65Z" fill="#2d3a3a"></path><path d="M0 139L16.7 138C33.3 137 66.7 135 100 134C133.3 133 166.7 133 200 137C233.3 141 266.7 149 300 155C333.3 161 366.7 165 400 173C433.3 181 466.7 193 500 191C533.3 189 566.7 173 600 171C633.3 169 666.7 181 700 178C733.3 175 766.7 157 800 143C833.3 129 866.7 119 883.3 114L900 109L900 101L883.3 104C866.7 107 833.3 113 800 125C766.7 137 733.3 155 700 154C666.7 153 633.3 133 600 131C566.7 129 533.3 145 500 150C466.7 155 433.3 149 400 141C366.7 133 333.3 123 300 117C266.7 111 233.3 109 200 105C166.7 101 133.3 95 100 97C66.7 99 33.3 109 16.7 114L0 119Z" fill="#2c3333"></path><path d="M0 253L16.7 252C33.3 251 66.7 249 100 244C133.3 239 166.7 231 200 229C233.3 227 266.7 231 300 231C333.3 231 366.7 227 400 232C433.3 237 466.7 251 500 258C533.3 265 566.7 265 600 272C633.3 279 666.7 293 700 274C733.3 255 766.7 203 800 172C833.3 141 866.7 131 883.3 126L900 121L900 107L883.3 112C866.7 117 833.3 127 800 141C766.7 155 733.3 173 700 176C666.7 179 633.3 167 600 169C566.7 171 533.3 187 500 189C466.7 191 433.3 179 400 171C366.7 163 333.3 159 300 153C266.7 147 233.3 139 200 135C166.7 131 133.3 131 100 132C66.7 133 33.3 135 16.7 136L0 137Z" fill="#2c3333"></path><path d="M0 271L16.7 276C33.3 281 66.7 291 100 291C133.3 291 166.7 281 200 284C233.3 287 266.7 303 300 301C333.3 299 366.7 279 400 285C433.3 291 466.7 323 500 326C533.3 329 566.7 303 600 297C633.3 291 666.7 305 700 295C733.3 285 766.7 251 800 235C833.3 219 866.7 221 883.3 222L900 223L900 119L883.3 124C866.7 129 833.3 139 800 170C766.7 201 733.3 253 700 272C666.7 291 633.3 277 600 270C566.7 263 533.3 263 500 256C466.7 249 433.3 235 400 230C366.7 225 333.3 229 300 229C266.7 229 233.3 225 200 227C166.7 229 133.3 237 100 242C66.7 247 33.3 249 16.7 250L0 251Z" fill="#2d3a3a"></path><path d="M0 457L16.7 435C33.3 413 66.7 369 100 362C133.3 355 166.7 385 200 399C233.3 413 266.7 411 300 406C333.3 401 366.7 393 400 389C433.3 385 466.7 385 500 395C533.3 405 566.7 425 600 429C633.3 433 666.7 421 700 424C733.3 427 766.7 445 800 430C833.3 415 866.7 367 883.3 343L900 319L900 221L883.3 220C866.7 219 833.3 217 800 233C766.7 249 733.3 283 700 293C666.7 303 633.3 289 600 295C566.7 301 533.3 327 500 324C466.7 321 433.3 289 400 283C366.7 277 333.3 297 300 299C266.7 301 233.3 285 200 282C166.7 279 133.3 289 100 289C66.7 289 33.3 279 16.7 274L0 269Z" fill="#2e4b4c"></path><path d="M0 487L16.7 470C33.3 453 66.7 419 100 413C133.3 407 166.7 429 200 434C233.3 439 266.7 427 300 424C333.3 421 366.7 427 400 423C433.3 419 466.7 405 500 417C533.3 429 566.7 467 600 473C633.3 479 666.7 453 700 448C733.3 443 766.7 459 800 451C833.3 443 866.7 411 883.3 395L900 379L900 317L883.3 341C866.7 365 833.3 413 800 428C766.7 443 733.3 425 700 422C666.7 419 633.3 431 600 427C566.7 423 533.3 403 500 393C466.7 383 433.3 383 400 387C366.7 391 333.3 399 300 404C266.7 409 233.3 411 200 397C166.7 383 133.3 353 100 360C66.7 367 33.3 411 16.7 433L0 455Z" fill="#2b5e5f"></path><path d="M0 565L16.7 540C33.3 515 66.7 465 100 461C133.3 457 166.7 499 200 511C233.3 523 266.7 505 300 498C333.3 491 366.7 495 400 485C433.3 475 466.7 451 500 460C533.3 469 566.7 511 600 515C633.3 519 666.7 485 700 487C733.3 489 766.7 527 800 517C833.3 507 866.7 449 883.3 420L900 391L900 377L883.3 393C866.7 409 833.3 441 800 449C766.7 457 733.3 441 700 446C666.7 451 633.3 477 600 471C566.7 465 533.3 427 500 415C466.7 403 433.3 417 400 421C366.7 425 333.3 419 300 422C266.7 425 233.3 437 200 432C166.7 427 133.3 405 100 411C66.7 417 33.3 451 16.7 468L0 485Z" fill="#237073"></path><path d="M0 601L16.7 601C33.3 601 66.7 601 100 601C133.3 601 166.7 601 200 601C233.3 601 266.7 601 300 601C333.3 601 366.7 601 400 601C433.3 601 466.7 601 500 601C533.3 601 566.7 601 600 601C633.3 601 666.7 601 700 601C733.3 601 766.7 601 800 601C833.3 601 866.7 601 883.3 601L900 601L900 389L883.3 418C866.7 447 833.3 505 800 515C766.7 525 733.3 487 700 485C666.7 483 633.3 517 600 513C566.7 509 533.3 467 500 458C466.7 449 433.3 473 400 483C366.7 493 333.3 489 300 496C266.7 503 233.3 521 200 509C166.7 497 133.3 455 100 459C66.7 463 33.3 513 16.7 538L0 563Z" fill="#0e8388"></path></svg>